<svg width="142" height="107" viewBox="0 0 142 107" fill="none" xmlns="http://www.w3.org/2000/svg">
<path d="M29.4336 49.7357C22.2397 48.1808 15.4393 45.4077 9.91166 40.2836C1.32258 32.3219 2.23721 15.1872 10.6772 7.32008C26.8976 -7.79956 54.4057 1.60001 54.3811 25.445C52.0888 25.618 50.1799 25.6884 47.8798 25.7118C47.474 21.9964 47.2179 19.7703 45.5169 16.384C40.8321 7.05711 28.0773 4.6293 19.1516 9.57656C15.4405 11.5981 12.6959 15.0244 11.533 19.0873C9.62562 25.7681 10.7753 32.8294 16.5901 37.121C20.7729 40.2079 24.5914 41.1901 29.4353 42.534C29.6177 36.8851 29.4386 30.7522 29.493 25.0583C29.5166 22.588 29.6589 16.1546 29.4235 14.0069C31.5926 13.841 34.4073 13.8789 36.5771 13.976C36.3596 15.8712 36.5031 21.576 36.504 23.8921L36.567 44.4055C39.2534 45.6941 42.2205 46.698 44.9395 48.0352C54.6354 52.8039 59.3958 59.7533 58.1206 70.8088C56.917 81.2434 49.9679 90.1061 40.3091 94.2281C36.6631 95.7842 36.8077 94.2424 36.3932 98.7862C38.2427 98.9725 55.8983 99.105 56.3338 98.6288C56.3193 98.386 56.2936 98.0375 56.3139 97.8057C56.4737 95.9874 57.8895 96.0499 59.1038 95.3792C59.3554 95.2401 60.8207 94.0259 61.0352 93.815C63.5918 91.3014 67.5661 88.2087 69.1822 85.0914C69.9711 83.5699 70.7207 78.7813 70.8163 77.0601C64.9229 75.8693 56.5176 78.9616 61.0476 68.9516C61.4399 68.0848 62.6958 67.0762 63.0584 66.0572C63.341 65.2635 63.1381 65.1554 62.8335 64.3958C62.9068 63.8987 62.8155 63.9288 63.1031 63.6792C63.4067 63.9704 63.5516 64.1836 63.9582 64.2221C64.3538 63.8496 64.5119 62.8239 64.6488 62.2492C67.4837 65.5808 73.6328 65.0304 77.649 65.2703C79.5742 65.3854 81.36 64.2694 83.1953 64.029C85.4332 63.7362 87.8357 64.5113 90.0936 64.2282C91.4361 64.0445 92.792 63.6525 94.1289 63.3834C96.952 62.7876 99.8116 62.3795 102.689 62.1622C107.766 61.8104 112.459 62.8012 117.208 62.1119C119.224 61.8192 122.826 58.5988 124.722 57.5498C126.289 56.6823 128.112 56.0329 129.623 55.0964C135.968 51.3366 130.483 45.2221 131.604 39.8943C132.25 36.8232 135.706 34.1778 138.904 34.9187C140.797 36.442 136.505 40.2411 136.509 42.0522C136.518 45.6103 137.697 48.473 136.678 52.125C135.073 57.8808 129.214 59.7687 126.488 64.6723C125.336 66.7485 127.978 68.1512 128.594 69.9115C129.759 72.5787 129.881 75.6006 131.951 77.8025C134.471 80.4825 137.728 81.2113 138.843 85.1665C139.185 86.3805 139.942 87.6539 140.385 88.8776C140.343 89.4236 140.2 90.1109 140.553 90.5718C141.37 91.6381 141.633 95.3791 140.954 96.4959L140.714 96.632C139.962 96.3695 139.614 95.2959 138.38 94.9913C137.796 93.0426 136.942 91.4203 135.731 89.7897C133.885 87.3064 131.156 86.9201 128.384 86.1861C126.616 85.7181 124.986 85.122 123.288 84.4719C123.152 85.0524 122.858 86.5047 122.942 86.9543C123.524 90.0631 125.917 90.4146 123.192 93.6001C121.673 95.3764 120.25 97.179 118.002 98.4202C115.337 99.8919 112.985 99.8016 110.143 99.0298C110.783 95.7148 111.454 97.2355 113.791 95.7971C114.945 95.0869 116.513 93.3666 117.474 92.3609C116.4 90.6981 112.912 87.275 111.135 86.4534C106.327 84.2308 99.3866 84.8296 94.4229 83.8415C93.8586 88.0797 95.8342 91.3293 96.0079 95.4946C96.1086 97.9158 95.1228 99.6923 92.4787 99.6404C91.5732 99.6226 90.8031 99.7499 90.1068 99.0714C90.0957 97.8771 91.3239 97.1335 92.0527 95.8702C92.1654 95.0537 90.2267 89.9597 89.6586 88.9888C86.7487 84.0156 80.5442 85.9401 76.3759 87.7958C74.9576 88.4273 73.0087 90.7124 71.5878 91.5672C67.5427 93.3706 65.0081 96.5012 61.513 98.771C63.8714 99.0196 66.2849 98.8709 68.6463 98.916C73.953 99.0173 79.6885 98.7113 84.9446 99.0005C84.6502 100.772 84.9565 104.884 84.4831 106.042C82.1384 106.226 79.2911 106.137 76.8922 106.138L64.0014 106.14C52.6823 106.139 40.9365 106.297 29.6489 106.074C29.3599 103.403 29.509 99.3487 29.4959 96.5219C11.4267 96.5105 1.04968 84.7866 0 67.3545C2.17821 67.1935 4.42882 67.1465 6.61594 67.0719C8.11305 80.1297 14.1132 89.0756 28.1735 89.524C28.5773 89.5368 28.9052 89.5795 29.1894 89.3036C29.6044 87.4012 29.4889 84.4081 29.4896 82.3907L29.4857 72.3766C29.4804 65.4157 29.7575 56.5417 29.4336 49.7357ZM36.5724 88.0347C40.0951 86.8451 43.2596 84.7833 45.7709 82.0414C51.7607 75.1267 54.8031 64.1305 47.0653 57.3774C43.6439 54.3915 40.5029 53.8069 36.7335 51.9975C36.3951 53.6745 36.5241 63.3067 36.525 65.5542L36.5356 80.2141C36.5382 82.6747 36.464 85.6182 36.5724 88.0347Z" fill="black"/>
</svg>
