<svg xmlns="http://www.w3.org/2000/svg" style="display: none;">
	<symbol id="list" viewBox="0 0 1024 1024">
		<title>List</title>
		<path d="M235.52 143.36h757.76c16.966 0 30.72 13.754 30.72 30.72s-13.754 30.72-30.72 30.72H235.52c-16.966 0-30.72-13.754-30.72-30.72s13.754-30.72 30.72-30.72zm0 225.28h757.76c16.966 0 30.72 13.754 30.72 30.72s-13.754 30.72-30.72 30.72H235.52c-16.966 0-30.72-13.754-30.72-30.72s13.754-30.72 30.72-30.72zm0 235.52h757.76c16.966 0 30.72 13.754 30.72 30.72s-13.754 30.72-30.72 30.72H235.52c-16.966 0-30.72-13.754-30.72-30.72s13.754-30.72 30.72-30.72zm0 225.28h757.76c16.966 0 30.72 13.754 30.72 30.72s-13.754 30.72-30.72 30.72H235.52c-16.966 0-30.72-13.754-30.72-30.72s13.754-30.72 30.72-30.72zM61.44 235.52C27.508 235.52 0 208.012 0 174.08s27.508-61.44 61.44-61.44 61.44 27.508 61.44 61.44-27.508 61.44-61.44 61.44zm0 225.28C27.508 460.8 0 433.292 0 399.36s27.508-61.44 61.44-61.44 61.44 27.508 61.44 61.44-27.508 61.44-61.44 61.44zm0 235.52C27.508 696.32 0 668.812 0 634.88s27.508-61.44 61.44-61.44 61.44 27.508 61.44 61.44-27.508 61.44-61.44 61.44zm0 225.28C27.508 921.6 0 894.092 0 860.16s27.508-61.44 61.44-61.44 61.44 27.508 61.44 61.44-27.508 61.44-61.44 61.44z"/>
	</symbol>
	<symbol id="hairstyler" viewBox="0 0 452.424 452.424">
		<title>Hair Styler</title>
		<path d="M441.534 51.195a10 10 0 0 0-9.53-6.97c-97.321 0-192.355 11.653-282.458 34.637-2.272.579-4.604 1.174-5.787 1.449-7.891-.821-23.576-15.667-34.056-25.588C94.521 40.351 82.53 28.999 70.91 28.999H10c-5.523 0-10 4.477-10 10s4.477 10 10 10h50.91v27.116H10c-5.523 0-10 4.477-10 10s4.477 10 10 10h50.91v27.116H10c-5.523 0-10 4.477-10 10s4.477 10 10 10h50.91v27.116H10c-5.523 0-10 4.477-10 10s4.477 10 10 10h50.91v27.116H10c-5.523 0-10 4.477-10 10s4.477 10 10 10h60.91c11.62 0 23.612-11.352 38.793-25.724 10.295-9.746 25.611-24.24 33.629-25.526 10.509 3.036 64.581 17.911 146.82 27.629L266.34 348.887l-.001.003v.003l-6.012 34.093c-1.632 9.249 2.64 18.697 11.719 25.923 7.833 6.233 18.911 10.751 32.039 13.066 5.461.963 10.771 1.451 15.782 1.451 21.339 0 36.157-8.86 38.672-23.123l31.529-178.811c2.442.086 4.883.155 7.325.226.256.02.51.031.764.031.035 0 .069-.004.104-.004 11.321.322 22.615.492 33.742.492a10 10 0 0 0 9.53-6.97c.444-1.398 10.89-34.795 10.89-82.035.001-47.242-10.445-80.638-10.889-82.037zM95.954 197.214c-4.429 4.193-10.073 9.536-15.044 13.685V55.562c4.971 4.149 10.615 9.492 15.044 13.685 13.308 12.598 26.035 24.64 38.468 29.189v69.588c-12.434 4.55-25.16 16.592-38.468 29.19zm213.524 51.375a21.163 21.163 0 0 1 3.53 15.922l-10.4 58.983a21.167 21.167 0 0 1-8.763 13.754 21.352 21.352 0 0 1-5.643 2.821l16.938-96.061a21.34 21.34 0 0 1 4.338 4.581zm62.411-39.165-33.044 187.405c-.483 2.739-6.69 6.596-18.977 6.596-3.851 0-7.992-.386-12.31-1.147-9.712-1.712-17.9-4.915-23.057-9.019-3.071-2.444-4.787-5.05-4.478-6.801l4.487-25.446c7.409-.506 14.567-3.012 20.807-7.381 9.038-6.329 15.071-15.798 16.986-26.664l10.4-58.982c1.917-10.866-.514-21.828-6.842-30.867-4.37-6.24-10.238-11.046-17.028-14.055l2.86-16.219a10.002 10.002 0 0 0-8.761-11.677c-75.64-8.27-129.848-21.627-148.512-26.643V98.259l.068-.017c75.655-19.298 154.884-30.459 236.053-33.292 2.911 11.948 7.882 36.943 7.882 68.281 0 31.319-4.965 56.302-7.876 68.258-2.797-.099-5.594-.2-8.388-.319-4.998-.208-9.4 3.317-10.27 8.254zm52.474-7.214c-4.441-.03-8.909-.095-13.385-.176 3.215-14.227 7.446-38.672 7.446-68.803 0-30.137-4.232-54.586-7.448-68.813 4.457-.078 8.918-.14 13.387-.169 2.888 11.709 8.061 37.135 8.061 68.981 0 31.85-5.175 57.277-8.061 68.98z"/>
	</symbol>
	<symbol id="haircurler" viewBox="0 0 436.953 436.953">
		<title>Curling Wand</title>
		<path d="M436.953 37.274c0-9.956-3.877-19.317-10.917-26.356C418.995 3.877 409.635 0 399.679 0c-8.009 0-15.631 2.508-21.97 7.153l-1.246-1.246c-3.906-3.905-10.236-3.905-14.143 0l-145.89 145.89-45.051-16.989a10.001 10.001 0 0 0-10.6 2.286l-11.348 11.348c-3.905 3.905-3.905 10.237 0 14.142l36.111 36.11-4.782 4.782a25.582 25.582 0 0 0-3.861 4.94 10 10 0 0 0-10.841 1.33c-3.931 3.308-96.736 81.484-138.834 123.582-37.688 37.688-30.482 71.637-12.861 89.259 8.353 8.354 20.373 14.365 34.724 14.365 15.922 0 34.714-7.405 54.535-27.225 42.099-42.099 120.274-134.904 123.582-138.834a10.006 10.006 0 0 0 1.333-10.835 25.878 25.878 0 0 0 4.938-3.869l4.781-4.781 18.698 18.699a10.003 10.003 0 0 0 14.142 0l39.879-39.879c3.905-3.905 3.905-10.237 0-14.142-3.906-3.905-10.236-3.904-14.143 0l-32.808 32.809-11.628-11.628L426.036 63.63c7.04-7.04 10.917-16.4 10.917-26.356zM89.481 395.585c-22.771 22.772-46.136 27.7-60.974 12.861-14.839-14.838-9.91-38.202 12.861-60.974 34.893-34.893 107.72-97.114 130.564-116.496l8.766 8.765.063.064 25.215 25.214c-19.38 22.844-81.596 95.668-116.495 130.566zm129.854-153.537a5.655 5.655 0 0 1-4.022 1.666 5.644 5.644 0 0 1-4.021-1.666l-8.193-8.192-8.227-8.228a5.693 5.693 0 0 1 .035-8.008l4.781-4.782 24.429 24.429-4.782 4.781zm-5.662-43.507-42.395-42.396 44.134 16.643a10 10 0 0 0 10.6-2.286L369.392 27.12l.934.934c3.814 3.814 3.814 10.018 0 13.832L213.673 198.541zm198.22-149.053L238.257 223.124l-10.441-10.441L384.469 56.029c9.017-9.017 11.031-22.425 6.044-33.404A17.159 17.159 0 0 1 399.679 20c4.613 0 8.951 1.797 12.214 5.06 3.263 3.262 5.06 7.6 5.06 12.214s-1.797 8.951-5.06 12.214z"/><path d="M118.85 303.961 84.47 338.34c-3.905 3.905-3.905 10.237 0 14.142a9.968 9.968 0 0 0 7.071 2.929 9.972 9.972 0 0 0 7.071-2.929l34.38-34.379c3.905-3.905 3.905-10.237 0-14.143-3.904-3.904-10.235-3.904-14.142.001z"/>
	</symbol>
	<symbol id="clipper" viewBox="0 0 429.985 429.985">
		<title>Hair Clipper</title>
		<path d="M223.263 187.187c-11.446-11.446-30.071-11.447-41.519 0-11.446 11.446-11.446 30.071 0 41.518l19.536 19.536c5.724 5.723 13.241 8.585 20.759 8.585 7.519 0 15.036-2.862 20.76-8.585v-.001c11.446-11.447 11.446-30.072 0-41.518l-19.536-19.535zm5.392 46.911c-3.649 3.65-9.586 3.648-13.233 0l-19.536-19.536c-3.649-3.648-3.649-9.585 0-13.234a9.33 9.33 0 0 1 6.617-2.736c2.396 0 4.792.912 6.617 2.736l19.535 19.535c3.649 3.65 3.649 9.587 0 13.235z"/>
		<path d="m429.958 118.407-1.857-25.431a10 10 0 0 0-9.247-9.245l-16.809-1.225-1.227-16.813a10.001 10.001 0 0 0-9.247-9.246l-16.81-1.225-1.228-16.813a10 10 0 0 0-9.247-9.245l-16.809-1.225-1.228-16.813a10.001 10.001 0 0 0-9.247-9.246L311.575.026a10.014 10.014 0 0 0-7.798 2.902l-35.705 35.705-.025.025a138.013 138.013 0 0 0-5.061 5.341C228.353 80.579 32.38 287.616 17.246 304.694c-12.929 14.59-12.752 35.519.413 48.684l6.104 6.104-14.099 14.102c-12.885 12.886-12.885 33.852.001 46.737 6.442 6.442 14.905 9.664 23.368 9.664s16.926-3.221 23.369-9.664l14.101-14.101 6.104 6.105c13.164 13.164 34.094 13.343 48.684.413 17.078-15.134 224.116-211.107 260.695-245.741a139.26 139.26 0 0 0 5.352-5.071l.026-.027 35.693-35.692a10.005 10.005 0 0 0 2.901-7.8zm-60.705-43.534 12.246.893.895 12.25-25.398 25.398-13.141-13.142 25.398-25.399zM341.969 47.59l12.247.893.895 12.25-25.399 25.397-13.142-13.141 25.399-25.399zm-27.283-27.284 12.246.892.895 12.25-25.398 25.398-13.141-13.141 25.398-25.399zM42.259 406.178c-5.087 5.087-13.366 5.088-18.453 0-5.087-5.087-5.087-13.365 0-18.452l14.101-14.101 18.453 18.453-14.101 14.1zm69.766-8.41c-6.557 5.809-15.704 5.988-21.277.413l-13.175-13.175-45.77-45.77c-5.574-5.574-5.397-14.721.413-21.277 11.349-12.807 130.794-139.19 200.464-212.835-.25 1.508-.466 3.021-.648 4.533-3.202 26.553 4.283 50.426 21.076 67.219 16.794 16.793 40.669 24.28 67.22 21.076 1.513-.183 3.025-.399 4.534-.648-73.647 69.669-200.03 189.115-212.837 200.464zM267.25 162.734c-12.357-12.357-17.814-30.357-15.362-50.682 2.201-18.254 10.474-36.377 23.557-51.905l12.842 12.842-15.743 15.742c-3.905 3.905-3.905 10.237 0 14.142 3.906 3.904 10.236 3.904 14.143 0l15.742-15.743 13.142 13.142-15.742 15.742c-3.905 3.905-3.905 10.237 0 14.143 3.906 3.904 10.236 3.904 14.143 0l15.742-15.743 13.142 13.142-15.742 15.743c-3.905 3.905-3.905 10.237 0 14.142 3.906 3.905 10.236 3.905 14.143 0l15.742-15.742 12.839 12.839c-33.807 28.446-78.215 32.568-102.588 8.196zm117.029-22.036-13.142-13.142 25.398-25.399 12.247.893.895 12.25-25.398 25.398z"/>
	</symbol>
	<symbol id="straighten" viewBox="0 0 512 512">
		<title>Hair Straighten</title>
		<path d="M413.708 218.852c-20.117 0-36.483 16.367-36.483 36.483v201.099c0 21.354-17.374 38.728-38.728 38.728-21.354 0-38.728-17.374-38.728-38.728v-5.017c16.678-6.889 28.702-23.236 29.275-41.983.392-12.821-4.304-24.944-13.219-34.137-6.299-6.493-14.119-10.914-22.679-12.959V18.168c10.934 3.556 18.861 13.845 18.861 25.951v303.728a8.418 8.418 0 0 0 8.419 8.419 8.419 8.419 0 0 0 8.419-8.419V44.118C328.845 19.792 309.054 0 284.727 0a8.419 8.419 0 0 0-8.419 8.419V13.8h-11.454c-11.489 0-20.837 9.347-20.837 20.837v180.217c0 11.489 9.346 20.837 20.837 20.837h11.454v125.724a46.766 46.766 0 0 0-11.224 2.832l-62.687-116.941 10.087-5.407a20.697 20.697 0 0 0 10.103-12.34 20.694 20.694 0 0 0-1.582-15.869L135.86 54.856a20.691 20.691 0 0 0-12.339-10.103 20.693 20.693 0 0 0-15.869 1.583l-10.088 5.408-1.062-1.98a8.422 8.422 0 0 0-4.986-4.082 8.429 8.429 0 0 0-6.412.64c-10.386 5.566-17.981 14.845-21.388 26.126-3.408 11.282-2.218 23.214 3.35 33.6L239.945 428.55c7.949 16.281 24.24 26.357 42.184 26.356.266 0 .535-.024.803-.028v1.556c0 30.639 24.927 55.566 55.566 55.566s55.566-24.927 55.566-55.566V255.335c0-10.831 8.813-19.645 19.644-19.645 10.831 0 19.645 8.813 19.645 19.645v70.137c0 4.65 3.768 8.419 8.419 8.419s8.419-3.769 8.419-8.419v-70.137c0-20.116-16.366-36.483-36.483-36.483zm-137.4 0h-11.454a4.003 4.003 0 0 1-3.998-3.998V34.637a4.003 4.003 0 0 1 3.998-3.998h11.454v188.213zm-160.7-157.677a3.98 3.98 0 0 1 3.044-.303 3.971 3.971 0 0 1 2.366 1.939l85.146 158.835c.68 1.27.483 2.453.304 3.044a3.976 3.976 0 0 1-1.939 2.367l-10.088 5.408-88.923-165.881 10.09-5.409zM284.33 437.993c-12.42.864-23.911-5.779-29.307-16.939a8.343 8.343 0 0 0-.159-.313L81.906 98.093c-3.443-6.422-4.179-13.801-2.072-20.776A27.144 27.144 0 0 1 86.263 66.3l.364.679c.024.047.043.097.068.144l96.878 180.723c.019.036.044.066.064.101l70.477 131.472a8.422 8.422 0 0 0 11.932 3.131 29.98 29.98 0 0 1 16.092-4.67c8.211 0 15.884 3.247 21.603 9.144 5.717 5.893 8.727 13.671 8.477 21.899-.467 15.235-12.716 28.004-27.888 29.07z"/>
		<circle cx="281.859" cy="407.349" r="8.419"/>
	</symbol>
	<symbol id="mirror" viewBox="0 0 512 512">
		<title>Mirror Makeup</title>
		<path d="M255.875 36.15c-64.95 0-117.79 52.84-117.79 117.79a8.607 8.607 0 0 0 8.608 8.608 8.607 8.607 0 0 0 8.608-8.608c0-55.456 45.117-100.574 100.574-100.574a8.607 8.607 0 0 0 8.608-8.608 8.607 8.607 0 0 0-8.608-8.608z"/><path d="M462.227 142.696c-6.199-14.699-23.203-21.611-37.901-15.413-6.89 2.906-12.07 8.186-14.99 14.489C403.111 62.555 336.662 0 255.875 0c-80.629 0-146.97 62.308-153.419 141.302-6.659-13.735-23.043-20.018-37.269-14.019-14.699 6.199-21.615 23.203-15.414 37.901 3.004 7.121 8.6 12.646 15.759 15.557 1.358.552 2.742.995 4.141 1.334 13.291 88.953 87.781 155.928 177.594 159.97v152.738h-66.496c-4.754 0-8.608 3.853-8.608 8.608s3.854 8.608 8.608 8.608h150.474c4.754 0 8.608-3.853 8.608-8.608s-3.854-8.608-8.608-8.608h-66.761V342.045c89.81-4.04 164.273-70.982 177.586-159.914a29.272 29.272 0 0 0 4.745-1.533c14.696-6.2 21.612-23.202 15.412-37.902zM255.875 17.216c75.39 0 136.725 61.334 136.725 136.724 0 75.391-61.334 136.725-136.725 136.725S119.151 229.331 119.151 153.94c0-75.39 61.333-136.724 136.724-136.724zM80.984 164.734c-5.95 2.515-12.836-.288-15.348-6.24a11.629 11.629 0 0 1-.057-8.966 11.643 11.643 0 0 1 6.3-6.383 11.632 11.632 0 0 1 4.537-.921c4.572 0 8.925 2.693 10.81 7.161 2.511 5.953-.289 12.838-6.242 15.349zm174.891 160.292c-84.595 0-155.935-61.441-168.972-144.126.257-.1.517-.195.772-.303 6.732-2.84 11.823-7.947 14.777-14.058 6.431 79.013 72.781 141.342 153.422 141.342 80.799 0 147.256-62.574 153.464-141.807 3.086 6.682 8.48 11.88 15.332 14.667.063.025.127.047.19.072-12.999 82.736-84.342 144.213-168.985 144.213zm184.247-160.291c-5.95 2.512-12.836-.289-15.348-6.241v.001c-2.511-5.953.289-12.839 6.242-15.349 5.951-2.511 12.836.29 15.348 6.242 2.511 5.951-.29 12.837-6.242 15.347z"/>
	</symbol>
	<symbol id="hair-dryer" viewBox="0 0 64 64">
		<title>Hair Dryer</title>
		<path d="M63.6 2.1c-.2-.2-.6-.2-.9-.1l-6.9 2H14C6.1 4 0 10.1 0 17.9v1c0 7.6 5.7 13.6 13.3 14L23 59.2c1 2.9 3.7 4.8 6.7 4.8.8 0 1.5-.1 2.3-.4 1.8-.6 3.2-1.9 3.8-3.7.6-1.6.6-3.5 0-5.4l-3.6-9.6c2-1.2 3.2-3.9 2.5-6-.4-1.2-1.4-2.2-2.9-2.7-.8-.2-1.8-.3-2.8-.2l-1.6-4.3L55.9 29l6.8 1.9h.3c.2 0 .4-.1.6-.2.3-.2.4-.5.4-.8v-27c0-.3-.1-.6-.4-.8zM55 6v21l-41 3.9c-.7 0-1.4-.1-2-.2V6.1c.6-.1 1.3-.1 2-.1h41zM2 18.9v-1c0-5.4 3.2-9.8 8-11.4v23.7c-4.8-1.5-8-5.9-8-11.3zm31 20.7c.4 1.1-.3 2.6-1.3 3.4l-1.9-5.1c1.3 0 2.8.6 3.2 1.7zm1 15.6c.8 2.5.2 5.6-2.6 6.5-2.7.9-5.6-.5-6.5-3.2l-9.5-25.8 10-1L34 55.2zm28-26.6-5-1.4V5.7l5-1.4v24.3z"/>
		<path d="M26 12h19c.6 0 1-.4 1-1s-.4-1-1-1H26c-.6 0-1 .4-1 1s.4 1 1 1zM48 12h2c.6 0 1-.4 1-1s-.4-1-1-1h-2c-.6 0-1 .4-1 1s.4 1 1 1z"/>
	</symbol>
</svg>
