<svg xmlns="http://www.w3.org/2000/svg" style="display: none;">
  <symbol id="logo" viewBox="0 0 142 107">
    <path d="M29.4336 49.7357C22.2397 48.1808 15.4393 45.4077 9.91166 40.2836C1.32258 32.3219 2.23721 15.1872 10.6772 7.32008C26.8976 -7.79956 54.4057 1.60001 54.3811 25.445C52.0888 25.618 50.1799 25.6884 47.8798 25.7118C47.474 21.9964 47.2179 19.7703 45.5169 16.384C40.8321 7.05711 28.0773 4.6293 19.1516 9.57656C15.4405 11.5981 12.6959 15.0244 11.533 19.0873C9.62562 25.7681 10.7753 32.8294 16.5901 37.121C20.7729 40.2079 24.5914 41.1901 29.4353 42.534C29.6177 36.8851 29.4386 30.7522 29.493 25.0583C29.5166 22.588 29.6589 16.1546 29.4235 14.0069C31.5926 13.841 34.4073 13.8789 36.5771 13.976C36.3596 15.8712 36.5031 21.576 36.504 23.8921L36.567 44.4055C39.2534 45.6941 42.2205 46.698 44.9395 48.0352C54.6354 52.8039 59.3958 59.7533 58.1206 70.8088C56.917 81.2434 49.9679 90.1061 40.3091 94.2281C36.6631 95.7842 36.8077 94.2424 36.3932 98.7862C38.2427 98.9725 55.8983 99.105 56.3338 98.6288C56.3193 98.386 56.2936 98.0375 56.3139 97.8057C56.4737 95.9874 57.8895 96.0499 59.1038 95.3792C59.3554 95.2401 60.8207 94.0259 61.0352 93.815C63.5918 91.3014 67.5661 88.2087 69.1822 85.0914C69.9711 83.5699 70.7207 78.7813 70.8163 77.0601C64.9229 75.8693 56.5176 78.9616 61.0476 68.9516C61.4399 68.0848 62.6958 67.0762 63.0584 66.0572C63.341 65.2635 63.1381 65.1554 62.8335 64.3958C62.9068 63.8987 62.8155 63.9288 63.1031 63.6792C63.4067 63.9704 63.5516 64.1836 63.9582 64.2221C64.3538 63.8496 64.5119 62.8239 64.6488 62.2492C67.4837 65.5808 73.6328 65.0304 77.649 65.2703C79.5742 65.3854 81.36 64.2694 83.1953 64.029C85.4332 63.7362 87.8357 64.5113 90.0936 64.2282C91.4361 64.0445 92.792 63.6525 94.1289 63.3834C96.952 62.7876 99.8116 62.3795 102.689 62.1622C107.766 61.8104 112.459 62.8012 117.208 62.1119C119.224 61.8192 122.826 58.5988 124.722 57.5498C126.289 56.6823 128.112 56.0329 129.623 55.0964C135.968 51.3366 130.483 45.2221 131.604 39.8943C132.25 36.8232 135.706 34.1778 138.904 34.9187C140.797 36.442 136.505 40.2411 136.509 42.0522C136.518 45.6103 137.697 48.473 136.678 52.125C135.073 57.8808 129.214 59.7687 126.488 64.6723C125.336 66.7485 127.978 68.1512 128.594 69.9115C129.759 72.5787 129.881 75.6006 131.951 77.8025C134.471 80.4825 137.728 81.2113 138.843 85.1665C139.185 86.3805 139.942 87.6539 140.385 88.8776C140.343 89.4236 140.2 90.1109 140.553 90.5718C141.37 91.6381 141.633 95.3791 140.954 96.4959L140.714 96.632C139.962 96.3695 139.614 95.2959 138.38 94.9913C137.796 93.0426 136.942 91.4203 135.731 89.7897C133.885 87.3064 131.156 86.9201 128.384 86.1861C126.616 85.7181 124.986 85.122 123.288 84.4719C123.152 85.0524 122.858 86.5047 122.942 86.9543C123.524 90.0631 125.917 90.4146 123.192 93.6001C121.673 95.3764 120.25 97.179 118.002 98.4202C115.337 99.8919 112.985 99.8016 110.143 99.0298C110.783 95.7148 111.454 97.2355 113.791 95.7971C114.945 95.0869 116.513 93.3666 117.474 92.3609C116.4 90.6981 112.912 87.275 111.135 86.4534C106.327 84.2308 99.3866 84.8296 94.4229 83.8415C93.8586 88.0797 95.8342 91.3293 96.0079 95.4946C96.1086 97.9158 95.1228 99.6923 92.4787 99.6404C91.5732 99.6226 90.8031 99.7499 90.1068 99.0714C90.0957 97.8771 91.3239 97.1335 92.0527 95.8702C92.1654 95.0537 90.2267 89.9597 89.6586 88.9888C86.7487 84.0156 80.5442 85.9401 76.3759 87.7958C74.9576 88.4273 73.0087 90.7124 71.5878 91.5672C67.5427 93.3706 65.0081 96.5012 61.513 98.771C63.8714 99.0196 66.2849 98.8709 68.6463 98.916C73.953 99.0173 79.6885 98.7113 84.9446 99.0005C84.6502 100.772 84.9565 104.884 84.4831 106.042C82.1384 106.226 79.2911 106.137 76.8922 106.138L64.0014 106.14C52.6823 106.139 40.9365 106.297 29.6489 106.074C29.3599 103.403 29.509 99.3487 29.4959 96.5219C11.4267 96.5105 1.04968 84.7866 0 67.3545C2.17821 67.1935 4.42882 67.1465 6.61594 67.0719C8.11305 80.1297 14.1132 89.0756 28.1735 89.524C28.5773 89.5368 28.9052 89.5795 29.1894 89.3036C29.6044 87.4012 29.4889 84.4081 29.4896 82.3907L29.4857 72.3766C29.4804 65.4157 29.7575 56.5417 29.4336 49.7357ZM36.5724 88.0347C40.0951 86.8451 43.2596 84.7833 45.7709 82.0414C51.7607 75.1267 54.8031 64.1305 47.0653 57.3774C43.6439 54.3915 40.5029 53.8069 36.7335 51.9975C36.3951 53.6745 36.5241 63.3067 36.525 65.5542L36.5356 80.2141C36.5382 82.6747 36.464 85.6182 36.5724 88.0347Z"/>
  </symbol>
  <symbol id="briefcase" viewBox="0 0 32 32">
    <title>briefcase</title>
    <path d="M29.5,29h-27C1.673,29,1,28.327,1,27.5v-6C1,21.224,1.224,21,1.5,21S2,21.224,2,21.5v6   C2,27.775,2.225,28,2.5,28h27c0.275,0,0.5-0.225,0.5-0.5v-6c0-0.276,0.224-0.5,0.5-0.5s0.5,0.224,0.5,0.5v6   C31,28.327,30.327,29,29.5,29z" stroke="none"/>
    <path d="M21.5,6C21.224,6,21,5.776,21,5.5v-2C21,3.225,20.775,3,20.5,3h-9C11.225,3,11,3.225,11,3.5v2   C11,5.776,10.776,6,10.5,6S10,5.776,10,5.5v-2C10,2.673,10.673,2,11.5,2h9C21.327,2,22,2.673,22,3.5v2C22,5.776,21.776,6,21.5,6z" stroke="none"/>
    <path d="M27.5,21h-2c-0.276,0-0.5-0.224-0.5-0.5s0.224-0.5,0.5-0.5h2c1.379,0,2.5-1.121,2.5-2.5V8H3.5   C3.224,8,3,7.776,3,7.5S3.224,7,3.5,7h27C30.776,7,31,7.224,31,7.5v10C31,19.43,29.43,21,27.5,21z" stroke="none"/>
    <path d="M6.5,21h-2C2.57,21,1,19.43,1,17.5v-10C1,7.224,1.224,7,1.5,7S2,7.224,2,7.5v10C2,18.879,3.121,20,4.5,20h2   C6.776,20,7,20.224,7,20.5S6.776,21,6.5,21z" stroke="none"/>
    <path d="M19.5,21h-7c-0.276,0-0.5-0.224-0.5-0.5s0.224-0.5,0.5-0.5h7c0.276,0,0.5,0.224,0.5,0.5S19.776,21,19.5,21z   " stroke="none"/>
    <path d="M9.5,23C8.673,23,8,22.327,8,21.5v-3C8,18.224,8.224,18,8.5,18h2c0.276,0,0.5,0.224,0.5,0.5v3    C11,22.327,10.327,23,9.5,23z M9,19v2.5C9,21.775,9.225,22,9.5,22s0.5-0.225,0.5-0.5V19H9z" stroke="none"/>
    <path d="M22.5,23c-0.827,0-1.5-0.673-1.5-1.5v-3c0-0.276,0.224-0.5,0.5-0.5h2c0.276,0,0.5,0.224,0.5,0.5v3    C24,22.327,23.327,23,22.5,23z M22,19v2.5c0,0.275,0.225,0.5,0.5,0.5s0.5-0.225,0.5-0.5V19H22z" stroke="none"/>
  </symbol>
  <symbol id="copyright" viewBox="0 0 256 256">
    <title>copyright</title>
    <path d="M128,28A100,100,0,1,0,228,128,100.113,100.113,0,0,0,128,28Zm0,192a92,92,0,1,1,92-92A92.10447,92.10447,0,0,1,128,220ZM92.00293,127.99512a36.00162,36.00162,0,0,0,64.7998,21.60351,4.0003,4.0003,0,0,1,6.39649,4.80567,43.99976,43.99976,0,1,1,0-52.81885,4.00044,4.00044,0,0,1-6.39649,4.80615,36.00163,36.00163,0,0,0-64.7998,21.60352Z"/>
  </symbol>
  <symbol id="law" viewBox="0 0 64 60">
    <title>law</title>
    <path id="Shape_2_" fill="none" stroke-width="1.5" stroke-linejoin="round" d="M52.9,9h-20V5.9c0-1.1-0.9-5.9-2-5.9s-2,4.8-2,5.9V9h-20c-1.7,0-3,1.3-3,2.9s1.3,2.9,3,2.9s3-1.3,3-2.9c0-0.2,8.5,3.8,16.9,4v32.4c-4.7,0.2-8.3,1.9-8.3,3.2c0,0.2,0.1,0.5,0.3,0.7H17c-0.8,0-1.4,0.6-1.4,1.3v3.2c0,0.7,0.6,1.3,1.4,1.3h4.1c0.8,0,1.4-0.6,1.4-1.3V56h16.4v0.7c0,0.7,0.6,1.3,1.4,1.3h4.1c0.8,0,1.4-0.6,1.4-1.3v-3.2c0-0.7-0.6-1.3-1.4-1.3h-3.8c0.2-0.2,0.3-0.4,0.3-0.7c0-1.3-3.6-3-8.3-3.2V15.9c8.5-0.1,16.9-4.1,16.9-4c0,1.6,1.3,2.9,3,2.9s3-1.3,3-2.9C55.9,10.3,54.6,9,52.9,9L52.9,9z"/>
    <path id="Shape_3_" fill="none" stroke-width="1.5" stroke-linejoin="round" d="M0.1,41L9,14.9l9,27"/>
    <path id="Shape_4_" fill="none" stroke-width="1.5" stroke-linejoin="round" d="M44,42l8.9-27.1l9.1,28"/>
    <path id="Shape" fill="none" stroke-width="1.5" stroke-linejoin="round" d="M18,41.4c0,1.9-4,3.6-9,3.6s-9-1.7-9-3.6C0,39.5,18,39.5,18,41.4L18,41.4z"/>
    <path id="Shape_1_" fill="none" stroke-width="1.5" stroke-linejoin="round" d="M61.9,42.4c0,1.9-4,3.6-9,3.6s-9-1.7-9-3.6C44,40.5,61.9,40.5,61.9,42.4L61.9,42.4z"/>
  </symbol>
  <symbol id="handcuff" viewBox="0 0 250 275">
    <title>handcuff</title>
    <path d="M180.293 0H194.197C194.247 0.0421484 194.297 0.0848323 194.348 0.126446C195.475 1.04506 203.424 1.94292 205.845 2.6157C226.84 8.45093 241.587 25.5896 244.155 47.2314C244.504 50.1624 244.187 53.6414 245.076 56.428C246.287 60.2117 249.314 62.8215 249.753 66.9321C250.046 69.6746 249.927 73.178 249.05 75.8088C247.437 80.656 243.873 84.9971 241.47 89.5132C237.449 97.0681 235.355 104.54 229.928 111.43C221.643 121.949 208.02 128.859 194.825 130.392C178.558 132.281 163.179 126.726 149.066 119.154C145.68 117.095 145.195 116.489 141.156 114.47C138.402 113.097 134.979 111.292 132.168 110.164C125.01 107.291 117.497 105.652 109.992 104.062C109.92 96.8325 109.892 89.6033 109.907 82.374C109.905 79.4658 109.751 73.3262 110.047 70.6562C107.466 70.55 104.238 70.5405 101.741 70.356C99.3284 81.8496 88.5645 78.3281 79.519 78.6038C78.4561 80.9429 76.5447 83.3521 74.991 85.4199C71.6287 89.8948 69.7437 93.1453 63.9334 94.1072L64.0278 101.681C68.4597 101.884 92.5806 101.011 94.7656 102.01C96.6057 104.673 108.04 135.827 107.788 138.314C106.653 140.008 98.7739 145.116 96.3274 147.499C88.3413 140.783 83.4563 137.394 72.4885 136.511C57.2771 135.286 42.7681 136.983 32.491 149.613C21.2182 163.467 18.2849 190.05 33.1306 202.439C33.6985 202.91 34.2925 203.349 34.9094 203.753L37.1045 205.084C35.4885 206.646 35.8718 206.602 36.2893 208.734C34.0706 207.474 31.8613 206.716 29.8403 205.234C26.5815 202.134 24.0106 199.356 22.21 195.125C15.3946 179.11 19.2274 157.215 30.8909 144.415C45.0442 128.882 81.5916 127.529 96.7273 141.904C98.7996 139.771 100.377 138.469 102.854 136.801C100.723 131.421 99.1018 125.616 97.311 120.089C95.9687 115.946 93.4624 110.78 92.5376 106.676C71.6902 106.492 50.8418 106.492 29.9944 106.677C29.166 109.401 28.4546 112.408 27.8123 115.154C24.7078 128.425 17.1922 138.64 11.1444 150.421C3.07417 166.142 0.935933 187.392 9.26968 203.377C12.1361 209.007 17.017 213.369 20.8934 218.017C18.3128 218.934 19.1226 219.138 17.8478 221.016C11.1279 214.891 4.74263 206.567 2.24818 197.797C1.65184 195.7 1.01983 190.999 0 189.687V170.218L0.0657224 170.123C0.727605 169.191 0.803982 168.105 1.03672 167.009C2.76833 158.858 5.64338 150.665 9.50696 143.28C10.9154 140.588 13.373 137.872 14.8515 135.153C20.2205 125.278 25.1777 113.117 25.9648 101.89C29.3154 101.482 35.9116 101.612 39.5051 101.615C46.2146 101.621 53.321 101.527 60.0078 101.712C59.7549 99.0979 59.9314 96.2588 60.0186 93.6177C58.3481 92.2107 55.6033 91.1462 54.0098 89.5967C44.7537 80.5957 57.6968 71.5574 62.5286 64.2981C63.9226 62.2039 66.5852 61.9792 68.7104 61.8271L70.0378 60.3018C72.0339 58.0222 74.0124 55.5334 77.3577 55.6919C86.2561 56.1128 101.163 53.3264 101.891 66.2351C104.59 65.9414 107.402 65.9802 110.116 66.0222C109.837 62.8889 109.939 58.7056 109.93 55.5037C109.861 48.7949 109.947 42.0857 110.189 35.3811C114.351 33.2302 118.298 31.7 122.441 30.249C127.949 28.3203 132.332 27.6489 135.591 22.4916C136.003 21.9947 136.529 21.5156 136.961 21.0474C146.656 10.5351 160.205 3.27012 174.397 1.35793C175.969 1.14622 179.184 1.00937 180.293 0ZM144.299 111.652C146.277 112.802 149.069 113.904 150.735 114.982C160.426 120.647 176.76 126.643 188.055 126.445C205.501 126.138 225.162 116.54 231.989 99.6953C233.483 96.0098 235.302 92.1428 236.879 88.4761C240.102 81.2195 247.017 75.9995 245.483 67.3997C244.624 62.5884 241.292 61.415 239.844 57.3293C239.102 54.3396 239.497 50.8337 239.251 47.8191C235.674 4.0793 180.989 -6.9771 149.923 15.8485C146.24 18.5544 143.071 20.3385 140.049 24.0583C139.198 25.1062 135.403 29.9165 134.545 30.2505C127.847 32.8552 121.19 35.5918 114.476 38.1887C114.836 50.9114 114.538 64.9294 114.539 77.7329L114.537 91.1885C114.535 93.8611 114.643 97.6526 114.284 100.218C120.486 100.939 139.534 107.775 144.299 111.652ZM54.9636 82.5828C55.3862 83.7459 55.624 84.4778 55.9092 85.6797C57.3704 86.7524 58.3914 87.2561 60.0041 88.0903C59.977 86.7978 59.9353 85.551 60.0103 84.2576C61.2356 84.157 62.6648 84.0007 63.8779 84.0132C64.1204 84.656 64.1755 88.8674 64.3862 90.4011C67.9365 88.0579 69.1768 85.5986 71.6965 82.4536C76.7275 76.1741 72.7991 78.8252 69.4714 73.4541C67.8579 70.8499 69.375 66.9692 68.208 65.5984C64.7549 67.6909 62.7056 71.2812 60.1641 74.3416C57.8899 77.0801 55.9209 78.6934 55.0408 82.2651L54.9636 82.5828ZM72.7107 67.7214C72.9072 71.0037 73.0999 73.7434 77.2319 73.8997C77.9094 71.4871 74.9404 68.3171 72.7107 67.7214ZM94.2229 74.5867C95.3042 73.6401 96.6223 72.5791 96.9582 71.1472L96.7454 70.7175L96.2266 70.6274C94.4341 70.5872 89.7012 70.8882 88.4968 70.1206C87.6851 68.8452 87.3945 67.4065 88.8774 66.4316C90.7866 65.1765 95.958 66.7209 97.4441 65.3862C97.8098 63.8794 95.6013 62.218 94.5469 61.2512C91.3953 61.073 88.2454 60.8672 85.0972 60.6338C82.719 60.4368 80.4009 60.0937 78.0127 60.1375C76.0862 60.5649 75.1482 61.2319 73.5706 62.3496C78.6309 66.9009 82.0886 67.0798 82.0315 74.6921C86.0952 74.4082 90.4609 74.8481 94.2229 74.5867Z" fill="#39393A"/>
    <path d="M153.575 99.699C145.189 93.5178 142.202 85.6192 140.667 75.7227C136.167 46.7124 147.296 24.3149 177.785 20.1166C200.973 16.9235 221.152 22.2497 225.115 48.0979C225.304 49.3313 225.423 50.6719 225.438 51.9368C228.445 51.1326 229.73 51.2183 232.869 51.262C232.714 52.8823 232.641 53.8213 232.686 55.4539C227.566 55.6565 223.95 56.0044 220.155 60.1279C217.665 62.8801 216.363 66.5039 216.53 70.2117C216.655 72.6311 217.708 76.803 218.318 79.2708C220.858 88.6235 218.254 94.3667 212.139 101.638C206.4 108.462 197.347 111.062 188.716 111.582C181 112.047 163.942 109.522 158.444 103.933C157.124 102.41 155.176 101.029 153.575 99.699ZM166.937 103.569C169.356 104.597 171.865 105.4 174.432 105.967C188.082 109.102 203.685 107.344 211.754 94.6902C218.286 84.4485 209.645 75.1865 212.544 64.23C213.947 58.927 216.77 56.1204 221.277 53.2964C221.23 51.4632 220.945 49.5564 220.641 47.7781C216.773 25.1892 196.309 21.2184 176.846 24.543C164.947 26.5755 157.875 30.5386 150.851 40.178C142.744 51.304 143.752 64.8025 145.404 77.6817C146.432 85.5952 152.771 94.1638 159.271 98.669C161.857 100.565 164.754 101.953 166.937 103.569Z" fill="#39393A"/>
    <path d="M159.271 98.6689C161.857 100.565 164.754 101.953 166.937 103.569C163.493 105.211 162.478 102.073 158.851 101.315C159.019 101.12 158.986 101.075 159.064 100.793L158.379 100.1C158.661 99.7317 159.021 99.0854 159.271 98.6689Z" stroke="none"/>
    <path d="M153.575 99.699C156.573 99.802 156.153 102.531 158.379 100.1L159.064 100.793C158.986 101.075 159.019 101.12 158.851 101.315C158.38 102.177 158.458 102.947 158.444 103.933C157.124 102.41 155.176 101.029 153.575 99.699Z" stroke="none"/>
    <path d="M228.756 62.8401C233.792 62.2883 235.66 63.6943 238.243 67.8762C238.533 72.2371 237.714 75.3147 233.331 76.9268C230.385 77.8355 227.291 77.6182 225.172 75.096C223.143 72.6812 223.485 69.4863 223.788 66.5691C225.348 64.4605 226.074 63.3062 228.756 62.8401ZM231.887 73.2232C233.222 72.2993 233.579 71.6526 234.377 70.2437C233.096 67.917 232.805 66.7346 229.826 66.9089C225.839 69.4353 227.547 73.7315 231.887 73.2232Z" fill="#39393A"/>
    <path d="M141.156 114.47C142.823 113.82 143.098 112.924 144.299 111.652C146.277 112.802 149.069 113.904 150.735 114.982C150.186 116.153 149.239 117.936 149.066 119.154C145.68 117.095 145.195 116.489 141.156 114.47Z" stroke="none"/>
    <path d="M29.8403 205.234L30.4338 203.95C32.1985 202.644 32.0564 205.012 34.1438 204.792L34.9094 203.753L37.1045 205.084C35.4885 206.646 35.8718 206.602 36.2893 208.734C34.0706 207.474 31.8613 206.716 29.8403 205.234Z" stroke="none"/>
    <path d="M58.8882 214.843C63.073 214.093 67.0864 216.835 67.9092 221.006C68.7319 225.177 66.0603 229.238 61.9041 230.134C59.1501 230.727 56.2905 229.788 54.4241 227.678C52.5579 225.568 51.9753 222.615 52.9006 219.954C53.8262 217.294 56.1152 215.339 58.8882 214.843ZM61.4509 225.711C63.0208 225.235 63.3938 224.2 64.1858 222.777C62.7422 220.614 62.4172 219.502 59.5728 219.731C54.6875 222.155 56.8242 225.565 61.4509 225.711Z" fill="#39393A"/>
    <path d="M75.6499 233.5C80.6531 241.005 86.3633 249.517 96.0879 251.084C115.25 254.172 141.369 237 145.198 217.712C146.913 209.078 143.836 192.938 137.994 186.383C137.693 184.745 144.645 182.05 146.091 181.863C147.116 181.73 148.158 181.832 149.139 182.16C150.439 182.585 161.257 188.423 162.105 189.387C167.181 195.162 168.519 215.252 167.26 222.326C165.452 232.496 160.205 241.766 154.004 249.553C148.309 255.886 140.804 261.265 133.649 265.859C129.638 268.435 125.086 269.531 120.907 271.167C118.297 272.188 107.059 273.618 106.123 274.414H98.2783C96.7092 273.105 92.6521 273.53 90.408 272.927C85.0803 271.497 78.7165 269.255 74.104 266.13C67.2104 261.465 60.9089 253.752 56.3928 246.829C55.1013 244.849 53.6938 240.782 51.8918 239.597C48.1714 237.153 43.6023 234.012 39.5374 232.341C35.3262 230.609 26.5054 227.682 23.3199 224.875C23.7639 223.543 24.1834 222.206 24.7371 220.917C28.3638 223.36 33.6714 225.391 37.8479 227.054C44.2239 229.593 50.7437 233.409 56.3877 237.319C58.0452 238.467 60.0271 243.575 61.1584 245.654C65.21 253.093 71.7759 259.595 78.9929 264.006C89.136 270.208 104.074 271.089 115.494 268.347C130.182 264.822 147.376 253.015 155.407 240.123C166.118 222.931 164.761 212.162 160.189 193.49C157.674 191.209 150.381 187.509 147.06 185.798L143.849 187.351C160.2 218.229 144.179 242.811 113.094 253.828C98.0913 259.146 78.8562 252.539 73.1528 236.899C71.3362 237.912 69.8296 238.796 68.1494 240.024C67.4678 240.523 67.2332 240.497 66.5833 240.355C65.9348 239.763 65.0923 237.756 64.5378 236.748C67.2715 235.806 69.8125 234.082 71.5037 231.715C74.1191 228.093 75.1528 223.563 74.3684 219.165C72.0122 205.867 58.7632 207.644 49.1802 210.073C45.8906 210.907 39.1045 210.915 36.2893 208.734C35.8718 206.602 35.4885 206.646 37.1045 205.084C38.2871 205.677 39.478 206.253 40.6768 206.812C42.9412 206.382 45.4089 206.625 47.4929 206.203C54.0256 204.879 60.6211 203.032 67.2659 204.958C77.3352 207.876 80.9409 220.175 77.5403 229.282C76.9924 230.75 76.334 232.104 75.6499 233.5Z" fill="#39393A"/>
    <path d="M17.8478 221.016C19.1226 219.138 18.3128 218.934 20.8934 218.017C22.1264 218.903 23.6297 219.919 24.7371 220.917C24.1833 222.206 23.7639 223.543 23.3199 224.875C21.6375 223.372 19.7257 222.662 17.8478 221.016Z" stroke="none"/>
  </symbol>
  <symbol id="europe" viewBox="0 0 512 512">
    <title>europe</title>
    <path d="M256 46.305l-9.404 19.054-21.03 3.056 15.217 14.832-3.592 20.945L256 94.305l18.81 9.888-3.593-20.945 15.217-14.832-21.03-3.057L256 46.304zM167.566 72.63l-9.404 19.056-21.03 3.056 15.218 14.832-3.592 20.946 18.808-9.89 18.81 9.89-3.593-20.946L198 94.742l-21.03-3.056-9.404-19.055zm176.868 0l-9.405 19.056L314 94.742l15.217 14.832-3.592 20.946 18.81-9.89 18.807 9.89-3.592-20.946 15.217-14.832-21.03-3.056-9.403-19.055zm-243.868 67.425l-9.404 19.054-21.03 3.056 15.218 14.832-3.592 20.945 18.808-9.888 18.81 9.888-3.593-20.945L131 162.166l-21.03-3.057-9.404-19.055zm310.868 0l-9.405 19.054-21.03 3.056 15.217 14.832-3.592 20.945 18.81-9.888 18.807 9.888-3.592-20.945 15.217-14.832-21.03-3.057-9.403-19.055zM76.566 228.55l-9.404 19.054-21.03 3.056 15.218 14.832-3.592 20.945 18.808-9.888 18.81 9.887-3.593-20.945L107 250.66l-21.03-3.056-9.404-19.055zm358.868 0l-9.405 19.054L405 250.66l15.217 14.832-3.592 20.945 18.81-9.888 18.807 9.887-3.592-20.945 15.217-14.832-21.03-3.056-9.403-19.055zm-334.868 89.897l-9.404 19.055-21.03 3.057 15.218 14.83-3.592 20.946 18.808-9.89 18.81 9.89-3.593-20.945L131 340.56l-21.03-3.058-9.404-19.055zm310.868 0l-9.405 19.055L381 340.56l15.217 14.83-3.592 20.946 18.81-9.89 18.807 9.89-3.592-20.945 15.217-14.83-21.03-3.058-9.403-19.055zm-243.868 65.746l-9.404 19.055-21.03 3.057 15.218 14.832-3.592 20.945 18.808-9.89 18.81 9.89-3.593-20.945L198 406.305l-21.03-3.057-9.404-19.055zm176.868 0l-9.405 19.055-21.03 3.057 15.217 14.832-3.592 20.945 18.81-9.89 18.807 9.89-3.592-20.945 15.217-14.832-21.03-3.057-9.403-19.055zm-88.61 23.614l-9.404 19.056-21.03 3.055 15.217 14.834-3.59 20.943.385-.203-.035.203L256 455.898l18.633 9.797-.035-.203.386.203-3.59-20.943 15.215-14.834-21.03-3.055-9.404-19.056-.176.355-.176-.355z"/>
  </symbol>
  <symbol id="person" viewBox="0 0 32 32">
    <title>person</title>
    <path d="M16,31C7.729,31,1,24.271,1,16S7.729,1,16,1s15,6.729,15,15S24.271,31,16,31z M16,2C8.28,2,2,8.28,2,16      s6.28,14,14,14s14-6.28,14-14S23.72,2,16,2z" stroke="none"/>
    <path d="M23.64,20.713l-4.762-1.652l-0.323-2.584c-0.215,0.307-0.523,0.546-0.924,0.671l0.293,2.345         c0.023,0.189,0.152,0.349,0.332,0.41l5.055,1.756c0.9,0.314,1.689,1.427,1.689,2.381v-0.007c0,0.276,0.224,0.5,0.5,0.5         c0.275,0,0.499-0.223,0.5-0.498C25.997,22.656,24.94,21.168,23.64,20.713z" stroke="none"/>
    <path d="M6.5,24.532c-0.276,0-0.5-0.224-0.5-0.5v0.007c0-1.379,1.059-2.871,2.359-3.326l4.762-1.641         l0.012-0.28c0.034-0.274,0.289-0.465,0.559-0.434c0.273,0.034,0.468,0.284,0.434,0.559l-0.051,0.589         c-0.023,0.189-0.153,0.348-0.333,0.41l-5.054,1.742C7.789,21.973,7,23.086,7,24.039v-0.007C7,24.309,6.776,24.532,6.5,24.532         z" stroke="none"/>
    <path d="M16,18.039c-2.779,0-4.192-1.844-4.201-6.469c-0.002-1.174,0.123-2.363,1.227-3.469          C13.729,7.396,14.729,7.039,16,7.039s2.271,0.357,2.975,1.063c1.104,1.105,1.229,2.295,1.227,3.469          C20.192,16.195,18.779,18.039,16,18.039z M16,8.039c-1.009,0-1.75,0.252-2.267,0.769c-0.632,0.633-0.938,1.2-0.935,2.761          c0.008,4.018,1.055,5.471,3.201,5.471s3.193-1.453,3.201-5.471c0.003-1.561-0.303-2.128-0.935-2.761          C17.75,8.291,17.009,8.039,16,8.039z" stroke="none"/>
  </symbol>
</svg>
